# xmcd
#
# Track frame offsets:
#	150
#	11833
#	25500
#	43250
#	53610
#	67770
#	78579
#	90487
#	99015
#	109394
#	123305
#	136688
#	149861
#	163024
#	174455
#	186451
#	195904
#	209858
#	219454
#	230924
#	240256
#	252699
#	263868
#	276292
#	286450
#	299014
#	308119
#
# Disc length: 4253 seconds
#
# Revision: 0
# Processed by: cddbd v1.5.2PL0 Copyright (c) Steve Scherf et al.
# Submitted via: EasyCDDAExtractor 16.0.6.1
#
DISCID=9b109b1b
DTITLE=marty robbins - The Complete Recordings: 1961-1963 disk 2
DYEAR=1900
DGENRE=Country
TTITLE0=The Bend in the River
TTITLE1=Abilene Rose
TTITLE2=track title Lolene 3
TTITLE3=Foggy Foggy Dew
TTITLE4=Beyond the Reef
TTITLE5=Ka-lu-a (Love Song of Kalua)
TTITLE6=Yours (Quiéreme Mucho)
TTITLE7=Dusty Winds
TTITLE8=No One Will Ever Know
TTITLE9=The Nearness of You
TTITLE10=All the Way
TTITLE11=I'll Walk Alone
TTITLE12=Devil Woman
TTITLE13=Ain't Life a Cryin' Shame
TTITLE14=Time Can't Make Me Forget
TTITLE15=In the Ashes of an Old Love Affair
TTITLE16=In the Ashes of an Old Love Affair
TTITLE17=Worried
TTITLE18=Little Rich Girl
TTITLE19=Progressive Love
TTITLE20=I'm Beginning to Forget
TTITLE21=Love Is a Hurting Thing
TTITLE22=Kinda Halfway Feel
TTITLE23=The Wine Flowed Freely
TTITLE24=Love Can't Wait
TTITLE25=Ruby Ann
TTITLE26=Sometimes I'm Tempted
EXTD=
EXTT0=
EXTT1=
EXTT2=
EXTT3=
EXTT4=
EXTT5=
EXTT6=
EXTT7=
EXTT8=
EXTT9=
EXTT10=
EXTT11=
EXTT12=
EXTT13=
EXTT14=
EXTT15=
EXTT16=
EXTT17=
EXTT18=
EXTT19=
EXTT20=
EXTT21=
EXTT22=
EXTT23=
EXTT24=
EXTT25=
EXTT26=
PLAYORDER=
